# MagicaVoxel @ Ephtracy

# group
o 

# material
mtllib bear.vox.mtl
usemtl palette

# normals
vn -1 0 0
vn 1 0 0
vn 0 0 1
vn 0 0 -1
vn 0 -1 0
vn 0 1 0

# texcoords
vt 0.0332031 0.5
vt 0.0605469 0.5
vt 0.990234 0.5
vt 0.994141 0.5

# verts
v -0.4 0.5 -0.1
v -0.4 0.5 -0.2
v -0.4 0.8 -0.1
v -0.4 0.8 -0.2
v -0.4 1 0
v -0.4 1 -0.1
v -0.4 1.1 0
v -0.4 1.1 -0.1
v -0.3 0 0
v -0.3 0 -0.2
v -0.3 0.2 0.1
v -0.3 0.2 0
v -0.3 0.2 -0.2
v -0.3 0.2 -0.4
v -0.3 0.4 0.1
v -0.3 0.4 -0.4
v -0.3 0.5 -0.1
v -0.3 0.5 -0.2
v -0.3 0.5 -0.3
v -0.3 0.5 -0.4
v -0.3 0.7 0.1
v -0.3 0.7 0
v -0.3 0.8 0
v -0.3 0.8 -0.1
v -0.3 0.8 -0.2
v -0.3 0.8 -0.3
v -0.3 0.9 0
v -0.3 0.9 -0.3
v -0.3 1 0.1
v -0.3 1 0
v -0.3 1 -0.1
v -0.3 1.1 0
v -0.3 1.1 -0.1
v -0.3 1.2 0.1
v -0.3 1.2 -0.3
v -0.3 1.4 0.1
v -0.3 1.4 0
v -0.3 1.4 -0.2
v -0.3 1.4 -0.3
v -0.3 1.5 0
v -0.3 1.5 -0.2
v -0.2 0.3 0.2
v -0.2 0.3 0.1
v -0.2 0.4 0.2
v -0.2 0.4 0.1
v -0.2 0.5 0.2
v -0.2 0.5 0.1
v -0.2 0.5 -0.3
v -0.2 0.5 -0.4
v -0.2 0.6 -0.3
v -0.2 0.6 -0.4
v -0.2 0.7 0.1
v -0.2 0.7 0
v -0.2 0.8 0.1
v -0.2 0.8 0
v -0.2 0.8 -0.2
v -0.2 0.9 0.1
v -0.2 0.9 0
v -0.2 0.9 -0.2
v -0.2 1 0.1
v -0.2 1 0
v -0.2 1.4 0.1
v -0.2 1.4 0
v -0.2 1.4 -0.2
v -0.2 1.4 -0.3
v -0.2 1.5 0.1
v -0.2 1.5 0
v -0.2 1.5 -0.2
v -0.2 1.5 -0.3
v -0.2 1.6 0
v -0.2 1.6 -0.2
v -0.1 0.5 0.2
v -0.1 0.5 0.1
v -0.1 0.6 0.2
v -0.1 0.6 0.1
v -0.1 0.8 -0.2
v -0.1 0.8 -0.3
v -0.1 0.9 -0.2
v -0.1 0.9 -0.3
v 0.1 0 0
v 0.1 0 -0.2
v 0.1 0.2 0
v 0.1 0.2 -0.2
v -0.1 0 0
v -0.1 0 -0.2
v -0.1 0.2 0
v -0.1 0.2 -0.2
v 0.1 0.5 0.2
v 0.1 0.5 0.1
v 0.1 0.6 0.2
v 0.1 0.6 0.1
v 0.1 0.8 -0.2
v 0.1 0.8 -0.3
v 0.1 0.9 -0.2
v 0.1 0.9 -0.3
v 0.2 0.3 0.2
v 0.2 0.3 0.1
v 0.2 0.4 0.2
v 0.2 0.4 0.1
v 0.2 0.5 0.2
v 0.2 0.5 0.1
v 0.2 0.5 -0.3
v 0.2 0.5 -0.4
v 0.2 0.6 -0.3
v 0.2 0.6 -0.4
v 0.2 0.7 0.1
v 0.2 0.7 0
v 0.2 0.8 0.1
v 0.2 0.8 0
v 0.2 0.8 -0.2
v 0.2 0.9 0.1
v 0.2 0.9 0
v 0.2 0.9 -0.2
v 0.2 1 0.1
v 0.2 1 0
v 0.2 1.4 0.1
v 0.2 1.4 0
v 0.2 1.4 -0.2
v 0.2 1.4 -0.3
v 0.2 1.5 0.1
v 0.2 1.5 0
v 0.2 1.5 -0.2
v 0.2 1.5 -0.3
v 0.2 1.6 0
v 0.2 1.6 -0.2
v 0.3 0 0
v 0.3 0 -0.2
v 0.3 0.2 0.1
v 0.3 0.2 0
v 0.3 0.2 -0.2
v 0.3 0.2 -0.4
v 0.3 0.4 0.1
v 0.3 0.4 -0.4
v 0.3 0.5 -0.1
v 0.3 0.5 -0.2
v 0.3 0.5 -0.3
v 0.3 0.5 -0.4
v 0.3 0.7 0.1
v 0.3 0.7 0
v 0.3 0.8 0
v 0.3 0.8 -0.1
v 0.3 0.8 -0.2
v 0.3 0.8 -0.3
v 0.3 0.9 0
v 0.3 0.9 -0.3
v 0.3 1 0.1
v 0.3 1 0
v 0.3 1 -0.1
v 0.3 1.1 0
v 0.3 1.1 -0.1
v 0.3 1.2 0.1
v 0.3 1.2 -0.3
v 0.3 1.4 0.1
v 0.3 1.4 0
v 0.3 1.4 -0.2
v 0.3 1.4 -0.3
v 0.3 1.5 0
v 0.3 1.5 -0.2
v 0.4 0.5 -0.1
v 0.4 0.5 -0.2
v 0.4 0.8 -0.1
v 0.4 0.8 -0.2
v 0.4 1 0
v 0.4 1 -0.1
v 0.4 1.1 0
v 0.4 1.1 -0.1
v -0.2 0.3 0.2
v -0.2 0.4 0.2
v -0.2 0.5 0.2
v -0.1 0.5 0.2
v -0.1 0.6 0.2
v 0.1 0.5 0.2
v 0.1 0.6 0.2
v 0.2 0.3 0.2
v 0.2 0.4 0.2
v 0.2 0.5 0.2
v -0.3 0.2 0.1
v -0.3 0.4 0.1
v -0.3 0.7 0.1
v -0.3 1 0.1
v -0.3 1.2 0.1
v -0.3 1.4 0.1
v -0.2 0.3 0.1
v -0.2 0.4 0.1
v -0.2 0.5 0.1
v -0.2 0.6 0.1
v -0.2 0.7 0.1
v -0.2 0.8 0.1
v -0.2 0.9 0.1
v -0.2 1 0.1
v -0.2 1.1 0.1
v -0.2 1.4 0.1
v -0.2 1.5 0.1
v -0.1 0.5 0.1
v -0.1 0.6 0.1
v -0.1 0.7 0.1
v -0.1 1 0.1
v -0.1 1.1 0.1
v 0 0.9 0.1
v 0 1 0.1
v 0.1 0.5 0.1
v 0.1 0.6 0.1
v 0.1 0.7 0.1
v 0.1 1 0.1
v 0.1 1.1 0.1
v 0.2 0.3 0.1
v 0.2 0.4 0.1
v 0.2 0.5 0.1
v 0.2 0.6 0.1
v 0.2 0.7 0.1
v 0.2 0.8 0.1
v 0.2 0.9 0.1
v 0.2 1 0.1
v 0.2 1.1 0.1
v 0.2 1.4 0.1
v 0.2 1.5 0.1
v 0.3 0.2 0.1
v 0.3 0.4 0.1
v 0.3 0.7 0.1
v 0.3 1 0.1
v 0.3 1.2 0.1
v 0.3 1.4 0.1
v -0.4 1 0
v -0.4 1.1 0
v -0.3 0 0
v -0.3 0.2 0
v -0.3 0.7 0
v -0.3 0.8 0
v -0.3 0.9 0
v -0.3 1 0
v -0.3 1.1 0
v -0.3 1.4 0
v -0.3 1.5 0
v -0.2 0.7 0
v -0.2 0.8 0
v -0.2 0.9 0
v -0.2 1 0
v -0.2 1.4 0
v -0.2 1.5 0
v -0.2 1.6 0
v -0.1 0 0
v -0.1 0.2 0
v 0 0.9 0
v 0.1 0 0
v 0.1 0.2 0
v 0.2 0.7 0
v 0.2 0.8 0
v 0.2 0.9 0
v 0.2 1 0
v 0.2 1.4 0
v 0.2 1.5 0
v 0.2 1.6 0
v 0.3 0 0
v 0.3 0.2 0
v 0.3 0.7 0
v 0.3 0.8 0
v 0.3 0.9 0
v 0.3 1 0
v 0.3 1.1 0
v 0.3 1.4 0
v 0.3 1.5 0
v 0.4 1 0
v 0.4 1.1 0
v -0.4 0.5 -0.1
v -0.4 0.8 -0.1
v -0.3 0.5 -0.1
v -0.3 0.8 -0.1
v 0.3 0.5 -0.1
v 0.3 0.8 -0.1
v 0.4 0.5 -0.1
v 0.4 0.8 -0.1
v -0.4 1 -0.1
v -0.4 1.1 -0.1
v -0.3 1 -0.1
v -0.3 1.1 -0.1
v 0.3 1 -0.1
v 0.3 1.1 -0.1
v 0.4 1 -0.1
v 0.4 1.1 -0.1
v -0.4 0.5 -0.2
v -0.4 0.8 -0.2
v -0.3 0 -0.2
v -0.3 0.2 -0.2
v -0.3 0.5 -0.2
v -0.3 0.8 -0.2
v -0.3 1.4 -0.2
v -0.3 1.5 -0.2
v -0.2 0.8 -0.2
v -0.2 0.9 -0.2
v -0.2 1.4 -0.2
v -0.2 1.5 -0.2
v -0.2 1.6 -0.2
v -0.1 0 -0.2
v -0.1 0.2 -0.2
v -0.1 0.8 -0.2
v -0.1 0.9 -0.2
v 0.1 0 -0.2
v 0.1 0.2 -0.2
v 0.1 0.8 -0.2
v 0.1 0.9 -0.2
v 0.2 0.8 -0.2
v 0.2 0.9 -0.2
v 0.2 1.4 -0.2
v 0.2 1.5 -0.2
v 0.2 1.6 -0.2
v 0.3 0 -0.2
v 0.3 0.2 -0.2
v 0.3 0.5 -0.2
v 0.3 0.8 -0.2
v 0.3 1.4 -0.2
v 0.3 1.5 -0.2
v 0.4 0.5 -0.2
v 0.4 0.8 -0.2
v -0.3 0.5 -0.3
v -0.3 0.8 -0.3
v -0.3 0.9 -0.3
v -0.3 1.2 -0.3
v -0.3 1.4 -0.3
v -0.2 0.5 -0.3
v -0.2 0.6 -0.3
v -0.2 1.4 -0.3
v -0.2 1.5 -0.3
v -0.1 0.8 -0.3
v -0.1 0.9 -0.3
v -0.1 1.3 -0.3
v -0.1 1.4 -0.3
v 0.1 0.8 -0.3
v 0.1 0.9 -0.3
v 0.1 1.3 -0.3
v 0.1 1.4 -0.3
v 0.2 0.5 -0.3
v 0.2 0.6 -0.3
v 0.2 1.4 -0.3
v 0.2 1.5 -0.3
v 0.3 0.5 -0.3
v 0.3 0.8 -0.3
v 0.3 0.9 -0.3
v 0.3 1.2 -0.3
v 0.3 1.4 -0.3
v -0.3 0.2 -0.4
v -0.3 0.4 -0.4
v -0.3 0.5 -0.4
v -0.2 0.5 -0.4
v -0.2 0.6 -0.4
v -0.1 0.2 -0.4
v -0.1 0.3 -0.4
v 0.1 0.2 -0.4
v 0.1 0.3 -0.4
v 0.2 0.5 -0.4
v 0.2 0.6 -0.4
v 0.3 0.2 -0.4
v 0.3 0.4 -0.4
v 0.3 0.5 -0.4
v -0.3 0 0
v -0.1 0 0
v 0.1 0 0
v 0.3 0 0
v -0.3 0 -0.2
v -0.1 0 -0.2
v 0.1 0 -0.2
v 0.3 0 -0.2
v -0.3 0.2 0.1
v 0.3 0.2 0.1
v -0.3 0.2 0
v -0.1 0.2 0
v 0.1 0.2 0
v 0.3 0.2 0
v -0.3 0.2 -0.2
v -0.1 0.2 -0.2
v 0.1 0.2 -0.2
v 0.3 0.2 -0.2
v -0.1 0.2 -0.3
v 0.1 0.2 -0.3
v -0.3 0.2 -0.4
v -0.1 0.2 -0.4
v 0.1 0.2 -0.4
v 0.3 0.2 -0.4
v -0.2 0.3 0.2
v 0.2 0.3 0.2
v -0.2 0.3 0.1
v 0.2 0.3 0.1
v -0.4 0.5 -0.1
v -0.3 0.5 -0.1
v 0.3 0.5 -0.1
v 0.4 0.5 -0.1
v -0.4 0.5 -0.2
v -0.3 0.5 -0.2
v 0.3 0.5 -0.2
v 0.4 0.5 -0.2
v -0.2 0.9 0.1
v 0 0.9 0.1
v 0.2 0.9 0.1
v -0.3 0.9 0
v -0.2 0.9 0
v 0 0.9 0
v 0.2 0.9 0
v 0.3 0.9 0
v -0.2 0.9 -0.2
v -0.1 0.9 -0.2
v 0.1 0.9 -0.2
v 0.2 0.9 -0.2
v -0.3 0.9 -0.3
v -0.1 0.9 -0.3
v 0.1 0.9 -0.3
v 0.3 0.9 -0.3
v -0.3 1 0.1
v -0.2 1 0.1
v 0.2 1 0.1
v 0.3 1 0.1
v -0.4 1 0
v -0.3 1 0
v -0.2 1 0
v 0.2 1 0
v 0.3 1 0
v 0.4 1 0
v -0.4 1 -0.1
v -0.3 1 -0.1
v 0.3 1 -0.1
v 0.4 1 -0.1
v -0.2 0.5 0.2
v -0.1 0.5 0.2
v 0.1 0.5 0.2
v 0.2 0.5 0.2
v -0.2 0.5 0.1
v -0.1 0.5 0.1
v 0.1 0.5 0.1
v 0.2 0.5 0.1
v -0.3 0.5 -0.3
v -0.2 0.5 -0.3
v 0.2 0.5 -0.3
v 0.3 0.5 -0.3
v -0.3 0.5 -0.4
v -0.2 0.5 -0.4
v 0.2 0.5 -0.4
v 0.3 0.5 -0.4
v -0.1 0.6 0.2
v 0.1 0.6 0.2
v -0.1 0.6 0.1
v 0.1 0.6 0.1
v -0.2 0.6 -0.3
v 0.2 0.6 -0.3
v -0.2 0.6 -0.4
v 0.2 0.6 -0.4
v -0.3 0.7 0.1
v -0.2 0.7 0.1
v 0.2 0.7 0.1
v 0.3 0.7 0.1
v -0.3 0.7 0
v -0.2 0.7 0
v 0.2 0.7 0
v 0.3 0.7 0
v -0.2 0.8 0.1
v 0.2 0.8 0.1
v -0.3 0.8 0
v -0.2 0.8 0
v 0.2 0.8 0
v 0.3 0.8 0
v -0.4 0.8 -0.1
v -0.3 0.8 -0.1
v 0.3 0.8 -0.1
v 0.4 0.8 -0.1
v -0.4 0.8 -0.2
v -0.3 0.8 -0.2
v -0.2 0.8 -0.2
v -0.1 0.8 -0.2
v 0.1 0.8 -0.2
v 0.2 0.8 -0.2
v 0.3 0.8 -0.2
v 0.4 0.8 -0.2
v -0.3 0.8 -0.3
v -0.1 0.8 -0.3
v 0.1 0.8 -0.3
v 0.3 0.8 -0.3
v -0.4 1.1 0
v -0.3 1.1 0
v 0.3 1.1 0
v 0.4 1.1 0
v -0.4 1.1 -0.1
v -0.3 1.1 -0.1
v 0.3 1.1 -0.1
v 0.4 1.1 -0.1
v -0.3 1.4 0.1
v -0.2 1.4 0.1
v 0.2 1.4 0.1
v 0.3 1.4 0.1
v -0.3 1.4 0
v -0.2 1.4 0
v 0.2 1.4 0
v 0.3 1.4 0
v -0.3 1.4 -0.2
v -0.2 1.4 -0.2
v 0.2 1.4 -0.2
v 0.3 1.4 -0.2
v -0.3 1.4 -0.3
v -0.2 1.4 -0.3
v 0.2 1.4 -0.3
v 0.3 1.4 -0.3
v -0.2 1.5 0.1
v 0.2 1.5 0.1
v -0.3 1.5 0
v -0.2 1.5 0
v 0.2 1.5 0
v 0.3 1.5 0
v -0.3 1.5 -0.2
v -0.2 1.5 -0.2
v 0.2 1.5 -0.2
v 0.3 1.5 -0.2
v -0.2 1.5 -0.3
v 0.2 1.5 -0.3
v -0.2 1.6 0
v 0.2 1.6 0
v -0.2 1.6 -0.2
v 0.2 1.6 -0.2

# faces
f 3/1/1 2/1/1 1/1/1
f 4/1/1 2/1/1 3/1/1
f 7/2/1 6/2/1 5/2/1
f 8/2/1 6/2/1 7/2/1
f 12/1/1 10/1/1 9/1/1
f 13/1/1 10/1/1 12/1/1
f 15/3/1 12/3/1 11/3/1
f 15/3/1 14/3/1 13/3/1
f 15/3/1 13/3/1 12/3/1
f 16/3/1 14/3/1 15/3/1
f 17/1/1 16/1/1 15/1/1
f 18/1/1 16/1/1 17/1/1
f 19/1/1 16/1/1 18/1/1
f 20/1/1 16/1/1 19/1/1
f 21/1/1 17/1/1 15/1/1
f 22/1/1 17/1/1 21/1/1
f 23/1/1 17/1/1 22/1/1
f 24/1/1 17/1/1 23/1/1
f 25/1/1 19/1/1 18/1/1
f 26/1/1 19/1/1 25/1/1
f 30/1/1 28/1/1 27/1/1
f 31/1/1 28/1/1 30/1/1
f 32/1/1 30/1/1 29/1/1
f 33/1/1 28/1/1 31/1/1
f 34/1/1 32/1/1 29/1/1
f 34/1/1 33/1/1 32/1/1
f 35/1/1 28/1/1 33/1/1
f 35/1/1 33/1/1 34/1/1
f 36/3/1 35/3/1 34/3/1
f 37/3/1 35/3/1 36/3/1
f 38/3/1 35/3/1 37/3/1
f 39/3/1 35/3/1 38/3/1
f 40/3/1 38/3/1 37/3/1
f 41/3/1 38/3/1 40/3/1
f 44/3/1 43/3/1 42/3/1
f 45/3/1 43/3/1 44/3/1
f 46/1/1 45/1/1 44/1/1
f 47/1/1 45/1/1 46/1/1
f 50/1/1 49/1/1 48/1/1
f 51/1/1 49/1/1 50/1/1
f 54/1/1 53/1/1 52/1/1
f 55/1/1 53/1/1 54/1/1
f 58/1/1 56/1/1 55/1/1
f 59/1/1 56/1/1 58/1/1
f 60/2/1 58/2/1 57/2/1
f 61/2/1 58/2/1 60/2/1
f 66/3/1 63/3/1 62/3/1
f 67/3/1 63/3/1 66/3/1
f 68/3/1 65/3/1 64/3/1
f 69/3/1 65/3/1 68/3/1
f 70/3/1 68/3/1 67/3/1
f 71/3/1 68/3/1 70/3/1
f 74/1/1 73/1/1 72/1/1
f 75/1/1 73/1/1 74/1/1
f 78/1/1 77/1/1 76/1/1
f 79/1/1 77/1/1 78/1/1
f 82/1/1 81/1/1 80/1/1
f 83/1/1 81/1/1 82/1/1
f 84/1/2 85/1/2 86/1/2
f 86/1/2 85/1/2 87/1/2
f 88/1/2 89/1/2 90/1/2
f 90/1/2 89/1/2 91/1/2
f 92/1/2 93/1/2 94/1/2
f 94/1/2 93/1/2 95/1/2
f 96/3/2 97/3/2 98/3/2
f 98/3/2 97/3/2 99/3/2
f 98/1/2 99/1/2 100/1/2
f 100/1/2 99/1/2 101/1/2
f 102/1/2 103/1/2 104/1/2
f 104/1/2 103/1/2 105/1/2
f 106/1/2 107/1/2 108/1/2
f 108/1/2 107/1/2 109/1/2
f 109/1/2 110/1/2 112/1/2
f 112/1/2 110/1/2 113/1/2
f 111/1/2 112/1/2 114/1/2
f 114/1/2 112/1/2 115/1/2
f 116/3/2 117/3/2 120/3/2
f 120/3/2 117/3/2 121/3/2
f 118/3/2 119/3/2 122/3/2
f 122/3/2 119/3/2 123/3/2
f 121/3/2 122/3/2 124/3/2
f 124/3/2 122/3/2 125/3/2
f 126/1/2 127/1/2 129/1/2
f 129/1/2 127/1/2 130/1/2
f 128/3/2 129/3/2 132/3/2
f 130/3/2 131/3/2 132/3/2
f 129/3/2 130/3/2 132/3/2
f 132/3/2 131/3/2 133/3/2
f 132/1/2 133/1/2 134/1/2
f 134/1/2 133/1/2 135/1/2
f 135/1/2 133/1/2 136/1/2
f 136/1/2 133/1/2 137/1/2
f 132/1/2 134/1/2 138/1/2
f 138/1/2 134/1/2 139/1/2
f 139/1/2 134/1/2 140/1/2
f 140/1/2 134/1/2 141/1/2
f 135/1/2 136/1/2 142/1/2
f 142/1/2 136/1/2 143/1/2
f 144/1/2 145/1/2 147/1/2
f 147/1/2 145/1/2 148/1/2
f 146/1/2 147/1/2 149/1/2
f 148/1/2 145/1/2 150/1/2
f 146/1/2 149/1/2 151/1/2
f 149/1/2 150/1/2 151/1/2
f 150/1/2 145/1/2 152/1/2
f 151/1/2 150/1/2 152/1/2
f 151/3/2 152/3/2 153/3/2
f 153/3/2 152/3/2 154/3/2
f 154/3/2 152/3/2 155/3/2
f 155/3/2 152/3/2 156/3/2
f 154/3/2 155/3/2 157/3/2
f 157/3/2 155/3/2 158/3/2
f 159/1/2 160/1/2 161/1/2
f 161/1/2 160/1/2 162/1/2
f 163/2/2 164/2/2 165/2/2
f 165/2/2 164/2/2 166/2/2
f 170/1/3 169/1/3 168/1/3
f 172/1/3 170/1/3 168/1/3
f 172/1/3 171/1/3 170/1/3
f 173/1/3 171/1/3 172/1/3
f 174/3/3 168/3/3 167/3/3
f 175/1/3 172/1/3 168/1/3
f 175/3/3 168/3/3 174/3/3
f 176/1/3 172/1/3 175/1/3
f 183/3/3 178/3/3 177/3/3
f 184/1/3 179/1/3 178/1/3
f 184/3/3 178/3/3 183/3/3
f 185/1/3 179/1/3 184/1/3
f 186/1/3 179/1/3 185/1/3
f 187/1/3 179/1/3 186/1/3
f 190/1/3 181/1/3 180/1/3
f 191/1/3 181/1/3 190/1/3
f 192/3/3 182/3/3 181/3/3
f 194/1/3 186/1/3 185/1/3
f 195/2/3 187/2/3 186/2/3
f 195/1/3 186/1/3 194/1/3
f 196/1/3 188/1/3 187/1/3
f 196/2/3 187/2/3 195/2/3
f 197/4/3 191/4/3 190/4/3
f 197/2/3 190/2/3 189/2/3
f 198/1/3 181/1/3 191/1/3
f 198/4/3 191/4/3 197/4/3
f 199/2/3 197/2/3 189/2/3
f 200/1/3 198/1/3 197/1/3
f 200/2/3 197/2/3 199/2/3
f 202/1/3 196/1/3 195/1/3
f 203/1/3 188/1/3 196/1/3
f 203/1/3 196/1/3 202/1/3
f 204/1/3 198/1/3 200/1/3
f 204/1/3 200/1/3 199/1/3
f 205/1/3 181/1/3 198/1/3
f 205/1/3 198/1/3 204/1/3
f 206/3/3 183/3/3 177/3/3
f 208/1/3 202/1/3 201/1/3
f 209/2/3 203/2/3 202/2/3
f 209/1/3 202/1/3 208/1/3
f 210/1/3 188/1/3 203/1/3
f 210/2/3 203/2/3 209/2/3
f 211/1/3 188/1/3 210/1/3
f 212/1/3 204/1/3 199/1/3
f 213/4/3 205/4/3 204/4/3
f 213/1/3 204/1/3 212/1/3
f 214/1/3 181/1/3 205/1/3
f 214/4/3 205/4/3 213/4/3
f 215/3/3 193/3/3 192/3/3
f 215/3/3 192/3/3 181/3/3
f 216/3/3 193/3/3 215/3/3
f 217/3/3 207/3/3 206/3/3
f 217/3/3 206/3/3 177/3/3
f 218/1/3 210/1/3 209/1/3
f 218/3/3 207/3/3 217/3/3
f 218/1/3 209/1/3 208/1/3
f 218/1/3 208/1/3 207/1/3
f 219/1/3 210/1/3 218/1/3
f 220/1/3 214/1/3 213/1/3
f 221/3/3 215/3/3 181/3/3
f 221/1/3 214/1/3 220/1/3
f 221/1/3 181/1/3 214/1/3
f 222/3/3 215/3/3 221/3/3
f 230/2/3 224/2/3 223/2/3
f 231/2/3 224/2/3 230/2/3
f 234/1/3 228/1/3 227/1/3
f 235/1/3 228/1/3 234/1/3
f 236/1/3 230/1/3 229/1/3
f 237/1/3 230/1/3 236/1/3
f 238/3/3 233/3/3 232/3/3
f 239/3/3 233/3/3 238/3/3
f 241/1/3 226/1/3 225/1/3
f 242/1/3 226/1/3 241/1/3
f 243/1/3 236/1/3 235/1/3
f 247/1/3 243/1/3 235/1/3
f 248/1/3 243/1/3 247/1/3
f 251/3/3 240/3/3 239/3/3
f 252/3/3 240/3/3 251/3/3
f 253/1/3 245/1/3 244/1/3
f 254/1/3 245/1/3 253/1/3
f 255/1/3 247/1/3 246/1/3
f 256/1/3 247/1/3 255/1/3
f 257/1/3 249/1/3 248/1/3
f 258/1/3 249/1/3 257/1/3
f 260/3/3 251/3/3 250/3/3
f 261/3/3 251/3/3 260/3/3
f 262/2/3 259/2/3 258/2/3
f 263/2/3 259/2/3 262/2/3
f 266/1/3 265/1/3 264/1/3
f 267/1/3 265/1/3 266/1/3
f 270/1/3 269/1/3 268/1/3
f 271/1/3 269/1/3 270/1/3
f 272/2/4 273/2/4 274/2/4
f 274/2/4 273/2/4 275/2/4
f 276/2/4 277/2/4 278/2/4
f 278/2/4 277/2/4 279/2/4
f 280/1/4 281/1/4 284/1/4
f 284/1/4 281/1/4 285/1/4
f 286/3/4 287/3/4 290/3/4
f 290/3/4 287/3/4 291/3/4
f 282/1/4 283/1/4 293/1/4
f 293/1/4 283/1/4 294/1/4
f 288/1/4 289/1/4 295/1/4
f 295/1/4 289/1/4 296/1/4
f 299/1/4 300/1/4 301/1/4
f 301/1/4 300/1/4 302/1/4
f 291/3/4 292/3/4 304/3/4
f 304/3/4 292/3/4 305/3/4
f 297/1/4 298/1/4 306/1/4
f 306/1/4 298/1/4 307/1/4
f 303/3/4 304/3/4 310/3/4
f 310/3/4 304/3/4 311/3/4
f 308/1/4 309/1/4 312/1/4
f 312/1/4 309/1/4 313/1/4
f 314/1/4 315/1/4 319/1/4
f 319/1/4 315/1/4 320/1/4
f 317/3/4 318/3/4 321/3/4
f 320/1/4 315/1/4 323/1/4
f 316/1/4 317/1/4 324/1/4
f 321/3/4 322/3/4 325/3/4
f 317/3/4 321/3/4 325/3/4
f 325/3/4 322/3/4 326/3/4
f 323/1/4 324/1/4 327/1/4
f 320/1/4 323/1/4 327/1/4
f 324/1/4 317/1/4 328/1/4
f 327/1/4 324/1/4 328/1/4
f 325/1/4 326/1/4 329/1/4
f 317/3/4 325/3/4 329/3/4
f 326/3/4 322/3/4 330/3/4
f 329/1/4 326/1/4 330/1/4
f 320/1/4 327/1/4 332/1/4
f 329/3/4 330/3/4 333/3/4
f 330/3/4 322/3/4 333/3/4
f 333/3/4 322/3/4 334/3/4
f 331/1/4 332/1/4 335/1/4
f 332/1/4 327/1/4 336/1/4
f 335/1/4 332/1/4 336/1/4
f 328/1/4 317/1/4 337/1/4
f 317/3/4 329/3/4 338/3/4
f 337/1/4 317/1/4 338/1/4
f 329/3/4 333/3/4 338/3/4
f 338/3/4 333/3/4 339/3/4
f 341/1/4 342/1/4 343/1/4
f 340/3/4 341/3/4 345/3/4
f 345/3/4 341/3/4 346/3/4
f 345/1/4 346/1/4 347/1/4
f 346/3/4 341/3/4 348/3/4
f 347/1/4 346/1/4 348/1/4
f 343/1/4 344/1/4 349/1/4
f 341/1/4 343/1/4 349/1/4
f 349/1/4 344/1/4 350/1/4
f 347/3/4 348/3/4 351/3/4
f 348/3/4 341/3/4 352/3/4
f 351/3/4 348/3/4 352/3/4
f 341/1/4 349/1/4 352/1/4
f 352/1/4 349/1/4 353/1/4
f 358/1/5 355/1/5 354/1/5
f 359/1/5 355/1/5 358/1/5
f 360/1/5 357/1/5 356/1/5
f 361/1/5 357/1/5 360/1/5
f 364/3/5 363/3/5 362/3/5
f 365/3/5 363/3/5 364/3/5
f 366/3/5 363/3/5 365/3/5
f 367/3/5 363/3/5 366/3/5
f 369/3/5 366/3/5 365/3/5
f 370/3/5 366/3/5 369/3/5
f 372/3/5 369/3/5 368/3/5
f 372/3/5 371/3/5 370/3/5
f 372/3/5 370/3/5 369/3/5
f 373/3/5 371/3/5 372/3/5
f 374/3/5 372/3/5 368/3/5
f 375/1/5 373/1/5 372/1/5
f 375/3/5 372/3/5 374/3/5
f 376/3/5 371/3/5 373/3/5
f 376/1/5 373/1/5 375/1/5
f 377/3/5 371/3/5 376/3/5
f 380/3/5 379/3/5 378/3/5
f 381/3/5 379/3/5 380/3/5
f 386/1/5 383/1/5 382/1/5
f 387/1/5 383/1/5 386/1/5
f 388/1/5 385/1/5 384/1/5
f 389/1/5 385/1/5 388/1/5
f 394/2/5 391/2/5 390/2/5
f 395/1/5 392/1/5 391/1/5
f 395/2/5 391/2/5 394/2/5
f 396/1/5 392/1/5 395/1/5
f 398/1/5 394/1/5 393/1/5
f 401/1/5 397/1/5 396/1/5
f 402/1/5 399/1/5 398/1/5
f 402/1/5 398/1/5 393/1/5
f 403/1/5 399/1/5 402/1/5
f 404/1/5 401/1/5 400/1/5
f 405/1/5 397/1/5 401/1/5
f 405/1/5 401/1/5 404/1/5
f 411/1/5 407/1/5 406/1/5
f 412/1/5 407/1/5 411/1/5
f 413/1/5 409/1/5 408/1/5
f 414/1/5 409/1/5 413/1/5
f 416/2/5 411/2/5 410/2/5
f 417/2/5 411/2/5 416/2/5
f 418/2/5 415/2/5 414/2/5
f 419/2/5 415/2/5 418/2/5
f 420/1/6 421/1/6 424/1/6
f 424/1/6 421/1/6 425/1/6
f 422/1/6 423/1/6 426/1/6
f 426/1/6 423/1/6 427/1/6
f 428/1/6 429/1/6 432/1/6
f 432/1/6 429/1/6 433/1/6
f 430/1/6 431/1/6 434/1/6
f 434/1/6 431/1/6 435/1/6
f 436/1/6 437/1/6 438/1/6
f 438/1/6 437/1/6 439/1/6
f 440/1/6 441/1/6 442/1/6
f 442/1/6 441/1/6 443/1/6
f 444/1/6 445/1/6 448/1/6
f 448/1/6 445/1/6 449/1/6
f 446/1/6 447/1/6 450/1/6
f 450/1/6 447/1/6 451/1/6
f 452/1/6 453/1/6 455/1/6
f 455/1/6 453/1/6 456/1/6
f 454/1/6 455/1/6 459/1/6
f 456/1/6 457/1/6 460/1/6
f 458/1/6 459/1/6 462/1/6
f 459/1/6 455/1/6 463/1/6
f 462/1/6 459/1/6 463/1/6
f 463/1/6 455/1/6 464/1/6
f 460/1/6 461/1/6 467/1/6
f 456/1/6 460/1/6 467/1/6
f 467/1/6 461/1/6 468/1/6
f 468/1/6 461/1/6 469/1/6
f 464/1/6 465/1/6 470/1/6
f 463/1/6 464/1/6 470/1/6
f 470/1/6 465/1/6 471/1/6
f 467/1/6 468/1/6 472/1/6
f 466/1/6 467/1/6 472/1/6
f 472/1/6 468/1/6 473/1/6
f 474/2/6 475/2/6 478/2/6
f 478/2/6 475/2/6 479/2/6
f 476/2/6 477/2/6 480/2/6
f 480/2/6 477/2/6 481/2/6
f 482/3/6 483/3/6 486/3/6
f 486/3/6 483/3/6 487/3/6
f 484/3/6 485/3/6 488/3/6
f 488/3/6 485/3/6 489/3/6
f 490/3/6 491/3/6 494/3/6
f 494/3/6 491/3/6 495/3/6
f 492/3/6 493/3/6 496/3/6
f 496/3/6 493/3/6 497/3/6
f 498/3/6 499/3/6 501/3/6
f 501/3/6 499/3/6 502/3/6
f 500/3/6 501/3/6 504/3/6
f 504/3/6 501/3/6 505/3/6
f 502/3/6 503/3/6 506/3/6
f 506/3/6 503/3/6 507/3/6
f 505/3/6 506/3/6 508/3/6
f 508/3/6 506/3/6 509/3/6
f 510/3/6 511/3/6 512/3/6
f 512/3/6 511/3/6 513/3/6
