# MagicaVoxel @ Ephtracy

# group
o 

# material
mtllib ht-game-char.vox.mtl
usemtl palette

# normals
vn -1 0 0
vn 1 0 0
vn 0 0 1
vn 0 0 -1
vn 0 -1 0
vn 0 1 0

# texcoords
vt 0.0253906 0.5
vt 0.0332031 0.5
vt 0.306641 0.5
vt 0.369141 0.5
vt 0.990234 0.5
vt 0.994141 0.5

# verts
v -0.5 0.3 0
v -0.5 0.3 -0.1
v -0.5 0.4 0
v -0.5 0.4 -0.1
v -0.4 0.4 0
v -0.4 0.4 -0.1
v -0.4 0.5 0
v -0.4 0.5 -0.1
v -0.3 0.3 0.2
v -0.3 0.3 -0.3
v -0.3 0.4 0.2
v -0.3 0.4 0
v -0.3 0.4 -0.1
v -0.3 0.4 -0.3
v -0.3 0.5 0
v -0.3 0.5 -0.1
v -0.3 0.6 0
v -0.3 0.6 -0.1
v -0.3 0.6 -0.2
v -0.3 0.7 0.2
v -0.3 0.7 0.1
v -0.3 0.7 0
v -0.3 0.7 -0.1
v -0.3 0.7 -0.2
v -0.3 0.7 -0.3
v -0.3 0.8 0.1
v -0.3 0.8 0
v -0.3 1.1 0.2
v -0.3 1.1 -0.3
v -0.2 0 0
v -0.2 0 -0.1
v -0.2 0.2 0
v -0.2 0.2 -0.1
v -0.2 0.3 0
v -0.2 0.3 -0.1
v -0.2 0.4 0.1
v -0.2 0.4 -0.2
v -0.2 0.5 0
v -0.2 0.5 -0.1
v -0.2 0.6 0
v -0.2 0.6 -0.1
v -0.2 0.6 -0.2
v -0.2 0.6 -0.3
v -0.2 0.7 0.1
v -0.2 0.7 0
v -0.2 0.7 -0.2
v -0.2 0.7 -0.3
v -0.2 0.7 -0.4
v -0.2 0.8 0.1
v -0.2 0.8 0
v -0.2 1.1 0.1
v -0.2 1.1 -0.3
v -0.2 1.1 -0.4
v -0.2 1.2 0.1
v -0.2 1.2 0
v -0.2 1.2 -0.1
v -0.2 1.2 -0.3
v -0.2 1.3 0
v -0.2 1.3 -0.1
v -0.1 0.6 -0.3
v -0.1 0.6 -0.4
v -0.1 0.7 -0.3
v -0.1 0.7 -0.4
v -0.1 0.9 0.2
v -0.1 0.9 0.1
v -0.1 1 0.2
v -0.1 1 0.1
v -0.1 1.2 0.1
v -0.1 1.2 0
v -0.1 1.2 -0.1
v -0.1 1.2 -0.2
v -0.1 1.3 0.1
v -0.1 1.3 0
v -0.1 1.3 -0.1
v -0.1 1.3 -0.2
v 0.1 0 0
v 0.1 0 -0.1
v 0.1 0.2 0
v 0.1 0.2 -0.1
v 0.1 0.3 0
v 0.1 0.3 -0.1
v 0.1 0.5 -0.2
v 0.1 0.5 -0.3
v 0.1 0.6 -0.2
v 0.1 0.6 -0.3
v 0.1 0.7 -0.3
v 0.1 0.7 -0.4
v 0.1 0.9 -0.3
v 0.1 0.9 -0.4
v 0.2 0.7 0.2
v 0.2 0.7 0.1
v 0.2 0.8 0.1
v 0.2 0.9 0.1
v 0.2 1 0.2
v 0.2 1 0.1
v 0.3 0.4 0
v 0.3 0.4 -0.1
v 0.3 0.5 0
v 0.3 0.5 -0.1
v 0.4 0.3 0
v 0.4 0.3 -0.1
v 0.4 0.4 0
v 0.4 0.4 -0.1
v -0.4 0.3 0
v -0.4 0.3 -0.1
v -0.4 0.4 0
v -0.4 0.4 -0.1
v -0.3 0.4 0
v -0.3 0.4 -0.1
v -0.3 0.5 0
v -0.3 0.5 -0.1
v -0.2 0.7 0.2
v -0.2 0.7 0.1
v -0.2 0.8 0.1
v -0.2 0.9 0.1
v -0.2 1 0.2
v -0.2 1 0.1
v -0.1 0 0
v -0.1 0 -0.1
v -0.1 0.2 0
v -0.1 0.2 -0.1
v -0.1 0.3 0
v -0.1 0.3 -0.1
v -0.1 0.7 -0.3
v -0.1 0.7 -0.4
v -0.1 0.9 -0.3
v -0.1 0.9 -0.4
v 0 0.9 0.2
v 0 0.9 0.1
v 0 1 0.2
v 0 1 0.1
v 0.1 0.6 -0.3
v 0.1 0.6 -0.4
v 0.1 0.7 -0.3
v 0.1 0.7 -0.4
v 0.1 1.2 0.1
v 0.1 1.2 0
v 0.1 1.2 -0.1
v 0.1 1.2 -0.2
v 0.1 1.3 0.1
v 0.1 1.3 0
v 0.1 1.3 -0.1
v 0.1 1.3 -0.2
v 0.2 0 0
v 0.2 0 -0.1
v 0.2 0.2 0
v 0.2 0.2 -0.1
v 0.2 0.3 0
v 0.2 0.3 -0.1
v 0.2 0.4 0.1
v 0.2 0.4 -0.2
v 0.2 0.5 0
v 0.2 0.5 -0.1
v 0.2 0.5 -0.2
v 0.2 0.5 -0.3
v 0.2 0.6 0
v 0.2 0.6 -0.1
v 0.2 0.6 -0.3
v 0.2 0.7 0.1
v 0.2 0.7 0
v 0.2 0.7 -0.3
v 0.2 0.7 -0.4
v 0.2 0.8 0.1
v 0.2 0.8 0
v 0.2 1.1 0.1
v 0.2 1.1 -0.3
v 0.2 1.1 -0.4
v 0.2 1.2 0.1
v 0.2 1.2 0
v 0.2 1.2 -0.1
v 0.2 1.2 -0.3
v 0.2 1.3 0
v 0.2 1.3 -0.1
v 0.3 0.3 0.2
v 0.3 0.3 -0.3
v 0.3 0.4 0.2
v 0.3 0.4 0
v 0.3 0.4 -0.1
v 0.3 0.4 -0.3
v 0.3 0.5 0
v 0.3 0.5 -0.1
v 0.3 0.6 0
v 0.3 0.6 -0.1
v 0.3 0.6 -0.3
v 0.3 0.7 0.2
v 0.3 0.7 0.1
v 0.3 0.7 0
v 0.3 0.7 -0.1
v 0.3 0.8 0.1
v 0.3 0.8 0
v 0.3 1.1 0.2
v 0.3 1.1 -0.3
v 0.4 0.4 0
v 0.4 0.4 -0.1
v 0.4 0.5 0
v 0.4 0.5 -0.1
v 0.5 0.3 0
v 0.5 0.3 -0.1
v 0.5 0.4 0
v 0.5 0.4 -0.1
v -0.3 0.3 0.2
v -0.3 0.4 0.2
v -0.3 0.7 0.2
v -0.3 1.1 0.2
v -0.2 0.7 0.2
v -0.2 1 0.2
v -0.1 0.9 0.2
v -0.1 1 0.2
v 0 0.9 0.2
v 0 1 0.2
v 0.2 0.7 0.2
v 0.2 1 0.2
v 0.3 0.3 0.2
v 0.3 0.4 0.2
v 0.3 0.7 0.2
v 0.3 1.1 0.2
v -0.2 0.4 0.1
v -0.2 0.7 0.1
v -0.2 0.8 0.1
v -0.2 0.9 0.1
v -0.2 1 0.1
v -0.2 1.1 0.1
v -0.2 1.2 0.1
v -0.1 0.8 0.1
v -0.1 0.9 0.1
v -0.1 1 0.1
v -0.1 1.2 0.1
v -0.1 1.3 0.1
v 0 0.9 0.1
v 0 1 0.1
v 0.1 0.8 0.1
v 0.1 0.9 0.1
v 0.1 1.2 0.1
v 0.1 1.3 0.1
v 0.2 0.4 0.1
v 0.2 0.7 0.1
v 0.2 0.8 0.1
v 0.2 0.9 0.1
v 0.2 1 0.1
v 0.2 1.1 0.1
v 0.2 1.2 0.1
v -0.5 0.3 0
v -0.5 0.4 0
v -0.4 0.3 0
v -0.4 0.4 0
v -0.4 0.5 0
v -0.3 0.4 0
v -0.3 0.5 0
v -0.3 0.6 0
v -0.3 0.7 0
v -0.3 0.8 0
v -0.2 0 0
v -0.2 0.2 0
v -0.2 0.3 0
v -0.2 0.5 0
v -0.2 0.6 0
v -0.2 0.7 0
v -0.2 0.8 0
v -0.2 1.2 0
v -0.2 1.3 0
v -0.1 0 0
v -0.1 0.2 0
v -0.1 0.3 0
v -0.1 1.2 0
v -0.1 1.3 0
v 0.1 0 0
v 0.1 0.2 0
v 0.1 0.3 0
v 0.1 1.2 0
v 0.1 1.3 0
v 0.2 0 0
v 0.2 0.2 0
v 0.2 0.3 0
v 0.2 0.5 0
v 0.2 0.6 0
v 0.2 0.7 0
v 0.2 0.8 0
v 0.2 1.2 0
v 0.2 1.3 0
v 0.3 0.4 0
v 0.3 0.5 0
v 0.3 0.6 0
v 0.3 0.7 0
v 0.3 0.8 0
v 0.4 0.3 0
v 0.4 0.4 0
v 0.4 0.5 0
v 0.5 0.3 0
v 0.5 0.4 0
v -0.3 0.7 0.1
v -0.3 0.8 0.1
v -0.2 0.7 0.1
v -0.2 0.8 0.1
v 0.2 0.7 0.1
v 0.2 0.8 0.1
v 0.3 0.7 0.1
v 0.3 0.8 0.1
v -0.5 0.3 -0.1
v -0.5 0.4 -0.1
v -0.4 0.3 -0.1
v -0.4 0.4 -0.1
v -0.4 0.5 -0.1
v -0.3 0.4 -0.1
v -0.3 0.5 -0.1
v -0.3 0.6 -0.1
v -0.2 0 -0.1
v -0.2 0.2 -0.1
v -0.2 0.3 -0.1
v -0.2 0.5 -0.1
v -0.2 0.6 -0.1
v -0.2 1.2 -0.1
v -0.2 1.3 -0.1
v -0.1 0 -0.1
v -0.1 0.2 -0.1
v -0.1 0.3 -0.1
v -0.1 1.2 -0.1
v -0.1 1.3 -0.1
v 0.1 0 -0.1
v 0.1 0.2 -0.1
v 0.1 0.3 -0.1
v 0.1 1.2 -0.1
v 0.1 1.3 -0.1
v 0.2 0 -0.1
v 0.2 0.2 -0.1
v 0.2 0.3 -0.1
v 0.2 0.5 -0.1
v 0.2 0.6 -0.1
v 0.2 1.2 -0.1
v 0.2 1.3 -0.1
v 0.3 0.4 -0.1
v 0.3 0.5 -0.1
v 0.3 0.6 -0.1
v 0.4 0.3 -0.1
v 0.4 0.4 -0.1
v 0.4 0.5 -0.1
v 0.5 0.3 -0.1
v 0.5 0.4 -0.1
v -0.3 0.6 -0.2
v -0.3 0.7 -0.2
v -0.2 0.4 -0.2
v -0.2 0.6 -0.2
v -0.2 0.7 -0.2
v -0.1 1.2 -0.2
v -0.1 1.3 -0.2
v 0.1 0.5 -0.2
v 0.1 0.6 -0.2
v 0.1 1.2 -0.2
v 0.1 1.3 -0.2
v 0.2 0.4 -0.2
v 0.2 0.5 -0.2
v -0.3 0.3 -0.3
v -0.3 0.4 -0.3
v -0.3 0.7 -0.3
v -0.3 1.1 -0.3
v -0.2 0.6 -0.3
v -0.2 0.7 -0.3
v -0.2 1.1 -0.3
v -0.2 1.2 -0.3
v -0.1 0.6 -0.3
v -0.1 0.7 -0.3
v -0.1 0.9 -0.3
v 0.1 0.5 -0.3
v 0.1 0.6 -0.3
v 0.1 0.7 -0.3
v 0.1 0.9 -0.3
v 0.2 0.5 -0.3
v 0.2 0.6 -0.3
v 0.2 0.7 -0.3
v 0.2 1.1 -0.3
v 0.2 1.2 -0.3
v 0.3 0.3 -0.3
v 0.3 0.4 -0.3
v 0.3 0.6 -0.3
v 0.3 1.1 -0.3
v -0.2 0.7 -0.4
v -0.2 1.1 -0.4
v -0.1 0.6 -0.4
v -0.1 0.7 -0.4
v -0.1 0.9 -0.4
v 0.1 0.6 -0.4
v 0.1 0.7 -0.4
v 0.1 0.9 -0.4
v 0.2 0.7 -0.4
v 0.2 1.1 -0.4
v -0.2 0 0
v -0.1 0 0
v 0.1 0 0
v 0.2 0 0
v -0.2 0 -0.1
v -0.1 0 -0.1
v 0.1 0 -0.1
v 0.2 0 -0.1
v -0.3 0.3 0.2
v 0.3 0.3 0.2
v -0.5 0.3 0
v -0.4 0.3 0
v -0.2 0.3 0
v -0.1 0.3 0
v 0.1 0.3 0
v 0.2 0.3 0
v 0.4 0.3 0
v 0.5 0.3 0
v -0.5 0.3 -0.1
v -0.4 0.3 -0.1
v -0.2 0.3 -0.1
v -0.1 0.3 -0.1
v 0.1 0.3 -0.1
v 0.2 0.3 -0.1
v 0.4 0.3 -0.1
v 0.5 0.3 -0.1
v -0.3 0.3 -0.3
v 0.3 0.3 -0.3
v -0.4 0.4 0
v -0.3 0.4 0
v 0.3 0.4 0
v 0.4 0.4 0
v -0.4 0.4 -0.1
v -0.3 0.4 -0.1
v 0.3 0.4 -0.1
v 0.4 0.4 -0.1
v -0.3 0.5 0
v -0.2 0.5 0
v 0.2 0.5 0
v 0.3 0.5 0
v -0.3 0.5 -0.1
v -0.2 0.5 -0.1
v 0.2 0.5 -0.1
v 0.3 0.5 -0.1
v 0.1 0.5 -0.2
v 0.2 0.5 -0.2
v 0.1 0.5 -0.3
v 0.2 0.5 -0.3
v -0.3 0.6 -0.1
v -0.2 0.6 -0.1
v 0.2 0.6 -0.1
v 0.3 0.6 -0.1
v -0.3 0.6 -0.2
v -0.2 0.6 -0.2
v 0.1 0.6 -0.2
v -0.2 0.6 -0.3
v -0.1 0.6 -0.3
v 0.1 0.6 -0.3
v 0.2 0.6 -0.3
v 0.3 0.6 -0.3
v -0.1 0.6 -0.4
v 0.1 0.6 -0.4
v -0.3 0.7 0.2
v -0.2 0.7 0.2
v 0.2 0.7 0.2
v 0.3 0.7 0.2
v -0.3 0.7 0.1
v -0.2 0.7 0.1
v 0.2 0.7 0.1
v 0.3 0.7 0.1
v -0.3 0.7 -0.2
v -0.2 0.7 -0.2
v -0.3 0.7 -0.3
v -0.2 0.7 -0.3
v -0.1 0.7 -0.3
v 0.1 0.7 -0.3
v 0.2 0.7 -0.3
v -0.2 0.7 -0.4
v -0.1 0.7 -0.4
v 0.1 0.7 -0.4
v 0.2 0.7 -0.4
v -0.3 0.8 0.1
v -0.2 0.8 0.1
v 0.2 0.8 0.1
v 0.3 0.8 0.1
v -0.3 0.8 0
v -0.2 0.8 0
v 0.2 0.8 0
v 0.3 0.8 0
v -0.1 0.9 0.2
v 0 0.9 0.2
v -0.1 0.9 0.1
v 0 0.9 0.1
v -0.1 0.9 -0.3
v 0.1 0.9 -0.3
v -0.1 0.9 -0.4
v 0.1 0.9 -0.4
v -0.2 1 0.2
v -0.1 1 0.2
v 0 1 0.2
v 0.2 1 0.2
v -0.2 1 0.1
v -0.1 1 0.1
v 0 1 0.1
v 0.2 1 0.1
v -0.3 0.4 0.2
v 0.3 0.4 0.2
v -0.2 0.4 0.1
v 0.2 0.4 0.1
v -0.5 0.4 0
v -0.4 0.4 0
v -0.3 0.4 0
v 0.3 0.4 0
v 0.4 0.4 0
v 0.5 0.4 0
v -0.5 0.4 -0.1
v -0.4 0.4 -0.1
v -0.3 0.4 -0.1
v 0.3 0.4 -0.1
v 0.4 0.4 -0.1
v 0.5 0.4 -0.1
v -0.2 0.4 -0.2
v 0.2 0.4 -0.2
v -0.3 0.4 -0.3
v 0.3 0.4 -0.3
v -0.4 0.5 0
v -0.3 0.5 0
v 0.3 0.5 0
v 0.4 0.5 0
v -0.4 0.5 -0.1
v -0.3 0.5 -0.1
v 0.3 0.5 -0.1
v 0.4 0.5 -0.1
v -0.1 0.7 -0.3
v 0.1 0.7 -0.3
v -0.1 0.7 -0.4
v 0.1 0.7 -0.4
v -0.3 1.1 0.2
v 0.3 1.1 0.2
v -0.2 1.1 0.1
v 0.2 1.1 0.1
v -0.3 1.1 -0.3
v -0.2 1.1 -0.3
v 0.2 1.1 -0.3
v 0.3 1.1 -0.3
v -0.2 1.1 -0.4
v 0.2 1.1 -0.4
v -0.2 1.2 0.1
v -0.1 1.2 0.1
v 0.1 1.2 0.1
v 0.2 1.2 0.1
v -0.2 1.2 0
v -0.1 1.2 0
v 0.1 1.2 0
v 0.2 1.2 0
v -0.2 1.2 -0.1
v -0.1 1.2 -0.1
v 0.1 1.2 -0.1
v 0.2 1.2 -0.1
v -0.1 1.2 -0.2
v 0.1 1.2 -0.2
v -0.2 1.2 -0.3
v 0.2 1.2 -0.3
v -0.1 1.3 0.1
v 0.1 1.3 0.1
v -0.2 1.3 0
v -0.1 1.3 0
v 0.1 1.3 0
v 0.2 1.3 0
v -0.2 1.3 -0.1
v -0.1 1.3 -0.1
v 0.1 1.3 -0.1
v 0.2 1.3 -0.1
v -0.1 1.3 -0.2
v 0.1 1.3 -0.2

# faces
f 3/2/1 2/2/1 1/2/1
f 4/2/1 2/2/1 3/2/1
f 7/2/1 6/2/1 5/2/1
f 8/2/1 6/2/1 7/2/1
f 11/5/1 10/5/1 9/5/1
f 12/5/1 10/5/1 11/5/1
f 13/5/1 10/5/1 12/5/1
f 14/5/1 10/5/1 13/5/1
f 17/2/1 16/2/1 15/2/1
f 18/2/1 16/2/1 17/2/1
f 22/5/1 18/5/1 17/5/1
f 23/1/1 19/1/1 18/1/1
f 23/5/1 18/5/1 22/5/1
f 24/1/1 19/1/1 23/1/1
f 26/1/1 21/1/1 20/1/1
f 27/1/1 25/1/1 24/1/1
f 27/1/1 23/1/1 22/1/1
f 27/1/1 24/1/1 23/1/1
f 28/1/1 26/1/1 20/1/1
f 28/1/1 27/1/1 26/1/1
f 29/1/1 25/1/1 27/1/1
f 29/1/1 27/1/1 28/1/1
f 32/4/1 31/4/1 30/4/1
f 33/4/1 31/4/1 32/4/1
f 34/2/1 33/2/1 32/2/1
f 35/2/1 33/2/1 34/2/1
f 38/5/1 37/5/1 36/5/1
f 39/5/1 37/5/1 38/5/1
f 40/5/1 38/5/1 36/5/1
f 41/5/1 37/5/1 39/5/1
f 42/5/1 37/5/1 41/5/1
f 44/5/1 40/5/1 36/5/1
f 45/5/1 40/5/1 44/5/1
f 46/1/1 43/1/1 42/1/1
f 47/1/1 43/1/1 46/1/1
f 49/2/1 45/2/1 44/2/1
f 50/2/1 45/2/1 49/2/1
f 52/1/1 48/1/1 47/1/1
f 53/1/1 48/1/1 52/1/1
f 54/1/1 52/1/1 51/1/1
f 55/1/1 52/1/1 54/1/1
f 56/1/1 52/1/1 55/1/1
f 57/1/1 52/1/1 56/1/1
f 58/1/1 56/1/1 55/1/1
f 59/1/1 56/1/1 58/1/1
f 62/1/1 61/1/1 60/1/1
f 63/1/1 61/1/1 62/1/1
f 66/1/1 65/1/1 64/1/1
f 67/1/1 65/1/1 66/1/1
f 72/1/1 69/1/1 68/1/1
f 73/1/1 69/1/1 72/1/1
f 74/1/1 71/1/1 70/1/1
f 75/1/1 71/1/1 74/1/1
f 78/4/1 77/4/1 76/4/1
f 79/4/1 77/4/1 78/4/1
f 80/2/1 79/2/1 78/2/1
f 81/2/1 79/2/1 80/2/1
f 84/5/1 83/5/1 82/5/1
f 85/5/1 83/5/1 84/5/1
f 88/1/1 87/1/1 86/1/1
f 89/1/1 87/1/1 88/1/1
f 92/1/1 91/1/1 90/1/1
f 93/1/1 92/1/1 90/1/1
f 94/1/1 93/1/1 90/1/1
f 95/1/1 93/1/1 94/1/1
f 98/2/1 97/2/1 96/2/1
f 99/2/1 97/2/1 98/2/1
f 102/2/1 101/2/1 100/2/1
f 103/2/1 101/2/1 102/2/1
f 104/2/2 105/2/2 106/2/2
f 106/2/2 105/2/2 107/2/2
f 108/2/2 109/2/2 110/2/2
f 110/2/2 109/2/2 111/2/2
f 112/1/2 113/1/2 114/1/2
f 112/1/2 114/1/2 115/1/2
f 112/1/2 115/1/2 116/1/2
f 116/1/2 115/1/2 117/1/2
f 118/4/2 119/4/2 120/4/2
f 120/4/2 119/4/2 121/4/2
f 120/2/2 121/2/2 122/2/2
f 122/2/2 121/2/2 123/2/2
f 124/1/2 125/1/2 126/1/2
f 126/1/2 125/1/2 127/1/2
f 128/1/2 129/1/2 130/1/2
f 130/1/2 129/1/2 131/1/2
f 132/1/2 133/1/2 134/1/2
f 134/1/2 133/1/2 135/1/2
f 136/1/2 137/1/2 140/1/2
f 140/1/2 137/1/2 141/1/2
f 138/1/2 139/1/2 142/1/2
f 142/1/2 139/1/2 143/1/2
f 144/4/2 145/4/2 146/4/2
f 146/4/2 145/4/2 147/4/2
f 146/2/2 147/2/2 148/2/2
f 148/2/2 147/2/2 149/2/2
f 150/5/2 151/5/2 152/5/2
f 152/5/2 151/5/2 153/5/2
f 153/5/2 151/5/2 154/5/2
f 150/5/2 152/5/2 156/5/2
f 154/5/2 155/5/2 157/5/2
f 153/5/2 154/5/2 157/5/2
f 157/5/2 155/5/2 158/5/2
f 150/5/2 156/5/2 159/5/2
f 159/5/2 156/5/2 160/5/2
f 159/2/2 160/2/2 163/2/2
f 163/2/2 160/2/2 164/2/2
f 161/1/2 162/1/2 166/1/2
f 166/1/2 162/1/2 167/1/2
f 165/1/2 166/1/2 168/1/2
f 168/1/2 166/1/2 169/1/2
f 169/1/2 166/1/2 170/1/2
f 170/1/2 166/1/2 171/1/2
f 169/1/2 170/1/2 172/1/2
f 172/1/2 170/1/2 173/1/2
f 174/5/2 175/5/2 176/5/2
f 176/5/2 175/5/2 177/5/2
f 177/5/2 175/5/2 178/5/2
f 178/5/2 175/5/2 179/5/2
f 180/2/2 181/2/2 182/2/2
f 182/2/2 181/2/2 183/2/2
f 182/5/2 183/5/2 187/5/2
f 183/1/2 184/1/2 188/1/2
f 187/5/2 183/5/2 188/5/2
f 185/1/2 186/1/2 189/1/2
f 187/1/2 188/1/2 190/1/2
f 185/1/2 189/1/2 191/1/2
f 189/1/2 190/1/2 191/1/2
f 188/1/2 184/1/2 192/1/2
f 191/1/2 190/1/2 192/1/2
f 190/1/2 188/1/2 192/1/2
f 193/2/2 194/2/2 195/2/2
f 195/2/2 194/2/2 196/2/2
f 197/2/2 198/2/2 199/2/2
f 199/2/2 198/2/2 200/2/2
f 205/1/3 204/1/3 203/1/3
f 206/1/3 204/1/3 205/1/3
f 208/1/3 204/1/3 206/1/3
f 209/1/3 208/1/3 207/1/3
f 210/1/3 204/1/3 208/1/3
f 210/1/3 208/1/3 209/1/3
f 212/1/3 204/1/3 210/1/3
f 213/5/3 202/5/3 201/5/3
f 214/5/3 202/5/3 213/5/3
f 215/1/3 212/1/3 211/1/3
f 216/1/3 204/1/3 212/1/3
f 216/1/3 212/1/3 215/1/3
f 224/2/3 219/2/3 218/2/3
f 224/6/3 220/6/3 219/6/3
f 225/1/3 221/1/3 220/1/3
f 225/6/3 220/6/3 224/6/3
f 226/1/3 221/1/3 225/1/3
f 227/1/3 223/1/3 222/1/3
f 229/2/3 225/2/3 224/2/3
f 231/2/3 224/2/3 218/2/3
f 231/2/3 229/2/3 224/2/3
f 232/1/3 230/1/3 229/1/3
f 232/2/3 229/2/3 231/2/3
f 233/1/3 228/1/3 227/1/3
f 233/1/3 227/1/3 222/1/3
f 234/1/3 228/1/3 233/1/3
f 235/5/3 218/5/3 217/5/3
f 236/2/3 231/2/3 218/2/3
f 236/5/3 218/5/3 235/5/3
f 237/6/3 232/6/3 231/6/3
f 237/2/3 231/2/3 236/2/3
f 238/1/3 230/1/3 232/1/3
f 238/6/3 232/6/3 237/6/3
f 239/1/3 230/1/3 238/1/3
f 240/1/3 233/1/3 222/1/3
f 241/1/3 233/1/3 240/1/3
f 244/2/3 243/2/3 242/2/3
f 245/2/3 243/2/3 244/2/3
f 247/2/3 246/2/3 245/2/3
f 248/2/3 246/2/3 247/2/3
f 255/2/3 249/2/3 248/2/3
f 256/5/3 250/5/3 249/5/3
f 256/2/3 249/2/3 255/2/3
f 257/1/3 251/1/3 250/1/3
f 257/5/3 250/5/3 256/5/3
f 258/1/3 251/1/3 257/1/3
f 261/4/3 253/4/3 252/4/3
f 262/2/3 254/2/3 253/2/3
f 262/4/3 253/4/3 261/4/3
f 263/2/3 254/2/3 262/2/3
f 264/1/3 260/1/3 259/1/3
f 265/1/3 260/1/3 264/1/3
f 271/4/3 267/4/3 266/4/3
f 272/2/3 268/2/3 267/2/3
f 272/4/3 267/4/3 271/4/3
f 273/2/3 268/2/3 272/2/3
f 278/1/3 270/1/3 269/1/3
f 279/1/3 270/1/3 278/1/3
f 281/2/3 275/2/3 274/2/3
f 282/5/3 276/5/3 275/5/3
f 282/2/3 275/2/3 281/2/3
f 283/1/3 277/1/3 276/1/3
f 283/5/3 276/5/3 282/5/3
f 284/1/3 277/1/3 283/1/3
f 286/2/3 281/2/3 280/2/3
f 287/2/3 281/2/3 286/2/3
f 288/2/3 286/2/3 285/2/3
f 289/2/3 286/2/3 288/2/3
f 290/1/4 291/1/4 292/1/4
f 292/1/4 291/1/4 293/1/4
f 294/1/4 295/1/4 296/1/4
f 296/1/4 295/1/4 297/1/4
f 298/2/4 299/2/4 300/2/4
f 300/2/4 299/2/4 301/2/4
f 301/2/4 302/2/4 303/2/4
f 303/2/4 302/2/4 304/2/4
f 304/2/4 305/2/4 309/2/4
f 309/2/4 305/2/4 310/2/4
f 306/4/4 307/4/4 313/4/4
f 307/2/4 308/2/4 314/2/4
f 313/4/4 307/4/4 314/4/4
f 314/2/4 308/2/4 315/2/4
f 311/1/4 312/1/4 316/1/4
f 316/1/4 312/1/4 317/1/4
f 318/4/4 319/4/4 323/4/4
f 319/2/4 320/2/4 324/2/4
f 323/4/4 319/4/4 324/4/4
f 324/2/4 320/2/4 325/2/4
f 321/1/4 322/1/4 328/1/4
f 328/1/4 322/1/4 329/1/4
f 326/2/4 327/2/4 331/2/4
f 331/2/4 327/2/4 332/2/4
f 330/2/4 331/2/4 334/2/4
f 334/2/4 331/2/4 335/2/4
f 333/2/4 334/2/4 336/2/4
f 336/2/4 334/2/4 337/2/4
f 338/1/4 339/1/4 341/1/4
f 341/1/4 339/1/4 342/1/4
f 340/5/4 341/5/4 345/5/4
f 345/5/4 341/5/4 346/5/4
f 343/1/4 344/1/4 347/1/4
f 347/1/4 344/1/4 348/1/4
f 340/5/4 345/5/4 349/5/4
f 349/5/4 345/5/4 350/5/4
f 353/1/4 354/1/4 356/1/4
f 356/1/4 354/1/4 357/1/4
f 355/1/4 356/1/4 359/1/4
f 359/1/4 356/1/4 360/1/4
f 360/1/4 361/1/4 364/1/4
f 364/1/4 361/1/4 365/1/4
f 362/5/4 363/5/4 366/5/4
f 363/1/4 364/1/4 367/1/4
f 366/5/4 363/5/4 367/5/4
f 367/1/4 364/1/4 368/1/4
f 357/1/4 358/1/4 369/1/4
f 369/1/4 358/1/4 370/1/4
f 351/5/4 352/5/4 371/5/4
f 371/5/4 352/5/4 372/5/4
f 367/1/4 368/1/4 373/1/4
f 368/1/4 369/1/4 373/1/4
f 373/1/4 369/1/4 374/1/4
f 375/1/4 376/1/4 378/1/4
f 378/1/4 376/1/4 379/1/4
f 377/1/4 378/1/4 380/1/4
f 380/1/4 378/1/4 381/1/4
f 379/1/4 376/1/4 382/1/4
f 381/1/4 382/1/4 383/1/4
f 382/1/4 376/1/4 384/1/4
f 383/1/4 382/1/4 384/1/4
f 389/4/5 386/4/5 385/4/5
f 390/4/5 386/4/5 389/4/5
f 391/4/5 388/4/5 387/4/5
f 392/4/5 388/4/5 391/4/5
f 397/5/5 394/5/5 393/5/5
f 398/5/5 394/5/5 397/5/5
f 399/5/5 394/5/5 398/5/5
f 400/5/5 394/5/5 399/5/5
f 403/2/5 396/2/5 395/2/5
f 404/2/5 396/2/5 403/2/5
f 405/5/5 397/5/5 393/5/5
f 406/5/5 399/5/5 398/5/5
f 407/5/5 399/5/5 406/5/5
f 408/5/5 394/5/5 400/5/5
f 409/2/5 402/2/5 401/2/5
f 410/2/5 402/2/5 409/2/5
f 411/5/5 408/5/5 407/5/5
f 411/5/5 407/5/5 406/5/5
f 411/5/5 405/5/5 393/5/5
f 411/5/5 406/5/5 405/5/5
f 412/5/5 394/5/5 408/5/5
f 412/5/5 408/5/5 411/5/5
f 417/2/5 414/2/5 413/2/5
f 418/2/5 414/2/5 417/2/5
f 419/2/5 416/2/5 415/2/5
f 420/2/5 416/2/5 419/2/5
f 425/2/5 422/2/5 421/2/5
f 426/2/5 422/2/5 425/2/5
f 427/2/5 424/2/5 423/2/5
f 428/2/5 424/2/5 427/2/5
f 431/5/5 430/5/5 429/5/5
f 432/5/5 430/5/5 431/5/5
f 437/1/5 434/1/5 433/1/5
f 438/1/5 434/1/5 437/1/5
f 440/1/5 439/1/5 438/1/5
f 441/1/5 439/1/5 440/1/5
f 442/1/5 439/1/5 441/1/5
f 443/1/5 436/1/5 435/1/5
f 444/1/5 436/1/5 443/1/5
f 445/1/5 442/1/5 441/1/5
f 446/1/5 442/1/5 445/1/5
f 451/1/5 448/1/5 447/1/5
f 452/1/5 448/1/5 451/1/5
f 453/1/5 450/1/5 449/1/5
f 454/1/5 450/1/5 453/1/5
f 457/1/5 456/1/5 455/1/5
f 458/1/5 456/1/5 457/1/5
f 462/1/5 459/1/5 458/1/5
f 463/1/5 459/1/5 462/1/5
f 464/1/5 461/1/5 460/1/5
f 465/1/5 461/1/5 464/1/5
f 470/1/5 467/1/5 466/1/5
f 471/1/5 467/1/5 470/1/5
f 472/1/5 469/1/5 468/1/5
f 473/1/5 469/1/5 472/1/5
f 476/1/5 475/1/5 474/1/5
f 477/1/5 475/1/5 476/1/5
f 480/1/5 479/1/5 478/1/5
f 481/1/5 479/1/5 480/1/5
f 486/1/5 483/1/5 482/1/5
f 487/1/5 483/1/5 486/1/5
f 488/1/5 485/1/5 484/1/5
f 489/1/5 485/1/5 488/1/5
f 490/5/6 491/5/6 492/5/6
f 492/5/6 491/5/6 493/5/6
f 490/5/6 492/5/6 496/5/6
f 493/5/6 491/5/6 497/5/6
f 494/2/6 495/2/6 500/2/6
f 500/2/6 495/2/6 501/2/6
f 496/5/6 492/5/6 502/5/6
f 493/5/6 497/5/6 503/5/6
f 498/2/6 499/2/6 504/2/6
f 504/2/6 499/2/6 505/2/6
f 502/5/6 492/5/6 506/5/6
f 493/5/6 503/5/6 507/5/6
f 502/5/6 506/5/6 508/5/6
f 506/5/6 507/5/6 508/5/6
f 507/5/6 503/5/6 509/5/6
f 508/5/6 507/5/6 509/5/6
f 510/2/6 511/2/6 514/2/6
f 514/2/6 511/2/6 515/2/6
f 512/2/6 513/2/6 516/2/6
f 516/2/6 513/2/6 517/2/6
f 518/1/6 519/1/6 520/1/6
f 520/1/6 519/1/6 521/1/6
f 522/1/6 523/1/6 524/1/6
f 524/1/6 523/1/6 525/1/6
f 522/1/6 524/1/6 526/1/6
f 526/1/6 524/1/6 527/1/6
f 525/1/6 523/1/6 528/1/6
f 528/1/6 523/1/6 529/1/6
f 527/1/6 528/1/6 530/1/6
f 530/1/6 528/1/6 531/1/6
f 532/1/6 533/1/6 536/1/6
f 536/1/6 533/1/6 537/1/6
f 534/1/6 535/1/6 538/1/6
f 538/1/6 535/1/6 539/1/6
f 540/1/6 541/1/6 544/1/6
f 542/1/6 543/1/6 545/1/6
f 540/1/6 544/1/6 546/1/6
f 544/1/6 545/1/6 546/1/6
f 545/1/6 543/1/6 547/1/6
f 546/1/6 545/1/6 547/1/6
f 548/1/6 549/1/6 551/1/6
f 551/1/6 549/1/6 552/1/6
f 550/1/6 551/1/6 554/1/6
f 552/1/6 553/1/6 554/1/6
f 551/1/6 552/1/6 554/1/6
f 554/1/6 553/1/6 555/1/6
f 555/1/6 553/1/6 556/1/6
f 556/1/6 553/1/6 557/1/6
f 555/1/6 556/1/6 558/1/6
f 558/1/6 556/1/6 559/1/6
